<svg xmlns="http://www.w3.org/2000/svg" version="1.1"  viewBox="0 0 800 800">
  <defs>
    <linearGradient x1="50%" y1="0%" x2="50%" y2="100%" id="ffflurry-grad" gradientTransform="rotate(270)">
      <stop stop-color="hsl(238, 82%, 13%)" stop-opacity=".15" offset="0%"/>
      <stop stop-color="hsl(1.4, 100%, 67%)" stop-opacity=".15" offset="45%"/>
      <stop stop-color="hsl(167, 52%, 78%)" stop-opacity=".15" offset="100%"/>
    </linearGradient>
  </defs>
  <rect width="100%" height="100%" fill="#00000000"/>
  <g fill="url(#ffflurry-grad)">
    <rect width="495" height="3" x="-100.5" y="74.5" rx="1.5" transform="rotate(45, 147, 76)" opacity="0.12"/>
    <rect width="636" height="3" x="142" y="719.5" rx="1.5" transform="rotate(45, 460, 721)" opacity="0.82"/>
    <rect width="482" height="3" x="-189" y="44.5" rx="1.5" transform="rotate(45, 52, 46)" opacity="0.17"/>
    <rect width="42" height="3" x="697" y="496.5" rx="1.5" transform="rotate(45, 718, 498)" opacity="0.16"/>
    <rect width="159" height="3" x="498.5" y="573.5" rx="1.5" transform="rotate(45, 578, 575)" opacity="0.47"/>
    <rect width="239" height="3" x="284.5" y="420.5" rx="1.5" transform="rotate(45, 404, 422)" opacity="0.43"/>
    <rect width="504" height="3" x="47" y="216.5" rx="1.5" transform="rotate(45, 299, 218)" opacity="0.54"/>
    <rect width="230" height="3" x="-67" y="631.5" rx="1.5" transform="rotate(45, 48, 633)" opacity="0.08"/>
    <rect width="234" height="3" x="451" y="508.5" rx="1.5" transform="rotate(45, 568, 510)" opacity="0.20"/>
    <rect width="116" height="3" x="675" y="261.5" rx="1.5" transform="rotate(45, 733, 263)" opacity="0.83"/>
    <rect width="441" height="3" x="542.5" y="54.5" rx="1.5" transform="rotate(45, 763, 56)" opacity="0.61"/>
    <rect width="516" height="3" x="240" y="568.5" rx="1.5" transform="rotate(45, 498, 570)" opacity="0.67"/>
    <rect width="392" height="3" x="-168" y="555.5" rx="1.5" transform="rotate(45, 28, 557)" opacity="0.28"/>
    <rect width="394" height="3" x="366" y="315.5" rx="1.5" transform="rotate(45, 563, 317)" opacity="0.93"/>
    <rect width="133" height="3" x="664.5" y="755.5" rx="1.5" transform="rotate(45, 731, 757)" opacity="0.13"/>
    <rect width="540" height="3" x="291" y="231.5" rx="1.5" transform="rotate(45, 561, 233)" opacity="0.60"/>
    <rect width="472" height="3" x="346" y="412.5" rx="1.5" transform="rotate(45, 582, 414)" opacity="0.52"/>
    <rect width="283" height="3" x="525.5" y="686.5" rx="1.5" transform="rotate(45, 667, 688)" opacity="0.53"/>
    <rect width="316" height="3" x="47" y="154.5" rx="1.5" transform="rotate(45, 205, 156)" opacity="0.29"/>
    <rect width="34" height="3" x="757" y="487.5" rx="1.5" transform="rotate(45, 774, 489)" opacity="0.38"/>
    <rect width="113" height="3" x="291.5" y="342.5" rx="1.5" transform="rotate(45, 348, 344)" opacity="0.66"/>
    <rect width="120" height="3" x="140" y="533.5" rx="1.5" transform="rotate(45, 200, 535)" opacity="0.52"/>
    <rect width="223" height="3" x="300.5" y="524.5" rx="1.5" transform="rotate(45, 412, 526)" opacity="0.23"/>
    <rect width="79" height="3" x="19.5" y="472.5" rx="1.5" transform="rotate(45, 59, 474)" opacity="0.09"/>
    <rect width="88" height="3" x="625" y="276.5" rx="1.5" transform="rotate(45, 669, 278)" opacity="0.95"/>
    <rect width="267" height="3" x="171.5" y="417.5" rx="1.5" transform="rotate(45, 305, 419)" opacity="0.10"/>
    <rect width="196" height="3" x="-51" y="377.5" rx="1.5" transform="rotate(45, 47, 379)" opacity="0.46"/>
    <rect width="312" height="3" x="-60" y="511.5" rx="1.5" transform="rotate(45, 96, 513)" opacity="0.26"/>
    <rect width="341" height="3" x="344.5" y="459.5" rx="1.5" transform="rotate(45, 515, 461)" opacity="0.93"/>
    <rect width="244" height="3" x="527" y="524.5" rx="1.5" transform="rotate(45, 649, 526)" opacity="0.80"/>
    <rect width="609" height="3" x="372.5" y="66.5" rx="1.5" transform="rotate(45, 677, 68)" opacity="0.88"/>
    <rect width="430" height="3" x="-18" y="732.5" rx="1.5" transform="rotate(45, 197, 734)" opacity="0.29"/>
    <rect width="99" height="3" x="385.5" y="310.5" rx="1.5" transform="rotate(45, 435, 312)" opacity="0.67"/>
    <rect width="395" height="3" x="-98.5" y="579.5" rx="1.5" transform="rotate(45, 99, 581)" opacity="0.35"/>
    <rect width="106" height="3" x="258" y="486.5" rx="1.5" transform="rotate(45, 311, 488)" opacity="0.40"/>
    <rect width="53" height="3" x="534.5" y="41.5" rx="1.5" transform="rotate(45, 561, 43)" opacity="0.37"/>
    <rect width="537" height="3" x="-65.5" y="259.5" rx="1.5" transform="rotate(45, 203, 261)" opacity="0.17"/>
    <rect width="68" height="3" x="608" y="166.5" rx="1.5" transform="rotate(45, 642, 168)" opacity="0.81"/>
    <rect width="46" height="3" x="550" y="710.5" rx="1.5" transform="rotate(45, 573, 712)" opacity="0.12"/>
    <rect width="590" height="3" x="12" y="662.5" rx="1.5" transform="rotate(45, 307, 664)" opacity="0.70"/>
    <rect width="51" height="3" x="604.5" y="329.5" rx="1.5" transform="rotate(45, 630, 331)" opacity="0.48"/>
    <rect width="58" height="3" x="473" y="103.5" rx="1.5" transform="rotate(45, 502, 105)" opacity="0.60"/>
    <rect width="612" height="3" x="-172" y="347.5" rx="1.5" transform="rotate(45, 134, 349)" opacity="0.68"/>
    <rect width="449" height="3" x="-194.5" y="725.5" rx="1.5" transform="rotate(45, 30, 727)" opacity="0.95"/>
    <rect width="267" height="3" x="624.5" y="634.5" rx="1.5" transform="rotate(45, 758, 636)" opacity="0.23"/>
    <rect width="609" height="3" x="-79.5" y="629.5" rx="1.5" transform="rotate(45, 225, 631)" opacity="0.17"/>
    <rect width="362" height="3" x="317" y="354.5" rx="1.5" transform="rotate(45, 498, 356)" opacity="0.44"/>
    <rect width="229" height="3" x="447.5" y="772.5" rx="1.5" transform="rotate(45, 562, 774)" opacity="0.17"/>
    <rect width="102" height="3" x="263" y="42.5" rx="1.5" transform="rotate(45, 314, 44)" opacity="0.66"/>
    <rect width="259" height="3" x="308.5" y="624.5" rx="1.5" transform="rotate(45, 438, 626)" opacity="0.59"/>
    <rect width="243" height="3" x="649.5" y="340.5" rx="1.5" transform="rotate(45, 771, 342)" opacity="0.67"/>
    <rect width="361" height="3" x="-145.5" y="175.5" rx="1.5" transform="rotate(45, 35, 177)" opacity="0.14"/>
    <rect width="142" height="3" x="181" y="342.5" rx="1.5" transform="rotate(45, 252, 344)" opacity="0.86"/>
    <rect width="344" height="3" x="101" y="549.5" rx="1.5" transform="rotate(45, 273, 551)" opacity="0.36"/>
    <rect width="369" height="3" x="482.5" y="592.5" rx="1.5" transform="rotate(45, 667, 594)" opacity="0.37"/>
    <rect width="382" height="3" x="74" y="107.5" rx="1.5" transform="rotate(45, 265, 109)" opacity="0.83"/>
    <rect width="368" height="3" x="377" y="640.5" rx="1.5" transform="rotate(45, 561, 642)" opacity="0.40"/>
    <rect width="511" height="3" x="452.5" y="382.5" rx="1.5" transform="rotate(45, 708, 384)" opacity="0.68"/>
    <rect width="379" height="3" x="297.5" y="190.5" rx="1.5" transform="rotate(45, 487, 192)" opacity="0.53"/>
    <rect width="443" height="3" x="-133.5" y="121.5" rx="1.5" transform="rotate(45, 88, 123)" opacity="0.70"/>
    <rect width="182" height="3" x="183" y="756.5" rx="1.5" transform="rotate(45, 274, 758)" opacity="0.49"/>
    <rect width="421" height="3" x="147.5" y="600.5" rx="1.5" transform="rotate(45, 358, 602)" opacity="0.11"/>
    <rect width="577" height="3" x="-155.5" y="197.5" rx="1.5" transform="rotate(45, 133, 199)" opacity="0.63"/>
    <rect width="306" height="3" x="497" y="445.5" rx="1.5" transform="rotate(45, 650, 447)" opacity="0.37"/>
    <rect width="148" height="3" x="341" y="42.5" rx="1.5" transform="rotate(45, 415, 44)" opacity="0.10"/>
    <rect width="70" height="3" x="142" y="442.5" rx="1.5" transform="rotate(45, 177, 444)" opacity="0.73"/>
    <rect width="548" height="3" x="99" y="746.5" rx="1.5" transform="rotate(45, 373, 748)" opacity="0.13"/>
    <rect width="625" height="3" x="-251.5" y="273.5" rx="1.5" transform="rotate(45, 61, 275)" opacity="0.85"/>
    <rect width="218" height="3" x="92" y="29.5" rx="1.5" transform="rotate(45, 201, 31)" opacity="0.20"/>
    <rect width="63" height="3" x="426.5" y="455.5" rx="1.5" transform="rotate(45, 458, 457)" opacity="0.92"/>
    <rect width="352" height="3" x="-36" y="654.5" rx="1.5" transform="rotate(45, 140, 656)" opacity="0.96"/>
    <rect width="54" height="3" x="-6" y="443.5" rx="1.5" transform="rotate(45, 21, 445)" opacity="0.29"/>
    <rect width="470" height="3" x="-132" y="748.5" rx="1.5" transform="rotate(45, 103, 750)" opacity="0.37"/>
    <rect width="84" height="3" x="716" y="182.5" rx="1.5" transform="rotate(45, 758, 184)" opacity="0.13"/>
    <rect width="594" height="3" x="82" y="139.5" rx="1.5" transform="rotate(45, 379, 141)" opacity="0.11"/>
    <rect width="322" height="3" x="-9" y="566.5" rx="1.5" transform="rotate(45, 152, 568)" opacity="0.35"/>
    <rect width="294" height="3" x="243" y="242.5" rx="1.5" transform="rotate(45, 390, 244)" opacity="0.92"/>
  </g>
</svg>
